<svg width="469" height="114" viewBox="0 0 469 114" fill="none" xmlns="http://www.w3.org/2000/svg">
<path d="M90.4219 3.64062L82.375 91.7656C81.9583 95.8802 81.75 98.5885 81.75 99.8906C81.75 101.974 82.1406 103.562 82.9219 104.656C83.9115 106.167 85.2396 107.286 86.9062 108.016C88.625 108.745 91.4896 109.109 95.5 109.109L94.6406 112H52.9219L53.7812 109.109H55.5781C58.9635 109.109 61.724 108.38 63.8594 106.922C65.3698 105.932 66.5417 104.292 67.375 102C67.9479 100.385 68.4948 96.5833 69.0156 90.5938L70.2656 77.1562H39.9531L29.1719 91.7656C26.724 95.0469 25.1875 97.4167 24.5625 98.875C23.9375 100.281 23.625 101.609 23.625 102.859C23.625 104.526 24.3021 105.958 25.6562 107.156C27.0104 108.354 29.25 109.005 32.375 109.109L31.5156 112H0.1875L1.04688 109.109C4.90104 108.953 8.28646 107.677 11.2031 105.281C14.1719 102.833 18.5729 97.651 24.4062 89.7344L87.6875 3.64062H90.4219ZM74.9531 29.6562L44.25 71.4531H70.8906L74.9531 29.6562ZM141.125 41.2969L130.734 76.8438C140.474 62.3125 147.922 52.7552 153.078 48.1719C158.286 43.5885 163.286 41.2969 168.078 41.2969C170.682 41.2969 172.818 42.1562 174.484 43.875C176.203 45.5938 177.062 47.8333 177.062 50.5938C177.062 53.7188 176.307 57.8854 174.797 63.0938L165.266 95.9844C164.172 99.7865 163.625 102.104 163.625 102.938C163.625 103.667 163.833 104.292 164.25 104.812C164.667 105.281 165.109 105.516 165.578 105.516C166.203 105.516 166.958 105.177 167.844 104.5C170.604 102.312 173.625 98.9792 176.906 94.5L179.328 95.9844C174.484 102.911 169.901 107.859 165.578 110.828C162.557 112.859 159.849 113.875 157.453 113.875C155.526 113.875 153.99 113.276 152.844 112.078C151.698 110.932 151.125 109.37 151.125 107.391C151.125 104.891 152.01 100.594 153.781 94.5L162.844 63.0938C163.99 59.1875 164.562 56.1406 164.562 53.9531C164.562 52.9115 164.224 52.0781 163.547 51.4531C162.87 50.776 162.036 50.4375 161.047 50.4375C159.589 50.4375 157.844 51.0625 155.812 52.3125C151.958 54.6562 147.948 58.5365 143.781 63.9531C139.615 69.3177 135.214 76.1927 130.578 84.5781C128.13 89.0052 126.099 93.849 124.484 99.1094L120.578 112H108.859L123.078 63.0938C124.745 57.2083 125.578 53.6667 125.578 52.4688C125.578 51.3229 125.109 50.3333 124.172 49.5C123.286 48.6146 122.167 48.1719 120.812 48.1719C120.188 48.1719 119.094 48.276 117.531 48.4844L114.562 48.9531L114.094 46.1406L141.125 41.2969ZM272.375 0.90625L245.5 93.0938C244.042 98.0938 243.312 101.375 243.312 102.938C243.312 103.458 243.521 103.953 243.938 104.422C244.406 104.891 244.875 105.125 245.344 105.125C246.021 105.125 246.828 104.786 247.766 104.109C249.536 102.859 252.505 99.7344 256.672 94.7344L259.328 96.375C255.578 101.583 251.776 105.802 247.922 109.031C244.12 112.26 240.552 113.875 237.219 113.875C235.448 113.875 233.99 113.25 232.844 112C231.698 110.75 231.125 108.979 231.125 106.688C231.125 103.719 231.906 99.7344 233.469 94.7344L236.516 85.0469C228.964 96.7135 222.089 104.786 215.891 109.266C211.62 112.339 207.531 113.875 203.625 113.875C199.667 113.875 196.203 112.13 193.234 108.641C190.318 105.099 188.859 100.307 188.859 94.2656C188.859 86.5052 191.333 78.224 196.281 69.4219C201.229 60.6198 207.766 53.4583 215.891 47.9375C222.297 43.5104 228.182 41.2969 233.547 41.2969C236.359 41.2969 238.781 41.8698 240.812 43.0156C242.844 44.1615 244.849 46.0625 246.828 48.7188L254.484 21.5312C255.057 19.6042 255.526 18.0677 255.891 16.9219C256.516 14.8385 256.828 13.1198 256.828 11.7656C256.828 10.6719 256.438 9.76042 255.656 9.03125C254.562 8.14583 253.156 7.70312 251.438 7.70312C250.24 7.70312 248.26 7.88542 245.5 8.25V5.35938L272.375 0.90625ZM243.391 56.375C243.391 53.0417 242.427 50.3594 240.5 48.3281C238.573 46.2969 236.125 45.2812 233.156 45.2812C226.594 45.2812 219.745 50.6979 212.609 61.5312C205.526 72.3646 201.984 82.7292 201.984 92.625C201.984 96.5312 202.844 99.526 204.562 101.609C206.281 103.641 208.339 104.656 210.734 104.656C216.151 104.656 222.948 98.7969 231.125 87.0781C239.302 75.3594 243.391 65.125 243.391 56.375ZM274.172 45.6719L301.125 41.2969L289.875 79.2656C298.99 63.6927 307.271 52.8073 314.719 46.6094C318.938 43.0677 322.375 41.2969 325.031 41.2969C326.75 41.2969 328.104 41.8177 329.094 42.8594C330.083 43.849 330.578 45.3073 330.578 47.2344C330.578 50.6719 329.693 53.9531 327.922 57.0781C326.672 59.4219 324.875 60.5938 322.531 60.5938C321.333 60.5938 320.292 60.2031 319.406 59.4219C318.573 58.6406 318.052 57.4427 317.844 55.8281C317.74 54.8385 317.505 54.1875 317.141 53.875C316.724 53.4583 316.229 53.25 315.656 53.25C314.771 53.25 313.938 53.4583 313.156 53.875C311.802 54.6042 309.745 56.6354 306.984 59.9688C302.661 65.0729 297.974 71.6875 292.922 79.8125C290.734 83.25 288.859 87.1302 287.297 91.4531C285.109 97.3906 283.859 100.958 283.547 102.156L281.047 112H269.094L283.547 63.4844C285.214 57.8594 286.047 53.849 286.047 51.4531C286.047 50.5156 285.656 49.7344 284.875 49.1094C283.833 48.276 282.453 47.8594 280.734 47.8594C279.641 47.8594 277.635 48.0938 274.719 48.5625L274.172 45.6719ZM341.281 82.5469C340.917 85.151 340.734 87.3125 340.734 89.0312C340.734 93.6667 342.375 97.625 345.656 100.906C348.938 104.135 352.922 105.75 357.609 105.75C361.359 105.75 364.953 104.995 368.391 103.484C371.88 101.922 377.036 98.5104 383.859 93.25L385.5 95.5156C373.156 107.755 361.385 113.875 350.188 113.875C342.583 113.875 336.854 111.479 333 106.688C329.146 101.896 327.219 96.6094 327.219 90.8281C327.219 83.0677 329.615 75.125 334.406 67C339.198 58.875 345.214 52.5729 352.453 48.0938C359.693 43.5625 367.141 41.2969 374.797 41.2969C380.318 41.2969 384.406 42.4167 387.062 44.6562C389.719 46.8958 391.047 49.5521 391.047 52.625C391.047 56.9479 389.328 61.0885 385.891 65.0469C381.359 70.2031 374.693 74.3698 365.891 77.5469C360.057 79.6823 351.854 81.349 341.281 82.5469ZM341.828 78.7188C349.536 77.8333 355.812 76.3229 360.656 74.1875C367.062 71.3229 371.854 67.9115 375.031 63.9531C378.26 59.9427 379.875 56.1406 379.875 52.5469C379.875 50.3594 379.172 48.5885 377.766 47.2344C376.411 45.8802 374.458 45.2031 371.906 45.2031C366.594 45.2031 360.943 48.0417 354.953 53.7188C349.016 59.3438 344.641 67.6771 341.828 78.7188ZM468.391 41.2969L453.156 94.2656L451.438 101.375C451.281 102.052 451.203 102.625 451.203 103.094C451.203 103.927 451.464 104.656 451.984 105.281C452.401 105.75 452.922 105.984 453.547 105.984C454.224 105.984 455.109 105.568 456.203 104.734C458.234 103.224 460.943 100.099 464.328 95.3594L466.984 97.2344C463.391 102.651 459.693 106.792 455.891 109.656C452.089 112.469 448.573 113.875 445.344 113.875C443.104 113.875 441.411 113.302 440.266 112.156C439.172 111.062 438.625 109.448 438.625 107.312C438.625 104.76 439.198 101.401 440.344 97.2344L441.984 91.375C435.161 100.281 428.885 106.505 423.156 110.047C419.042 112.599 415.005 113.875 411.047 113.875C407.245 113.875 403.964 112.312 401.203 109.188C398.443 106.01 397.062 101.661 397.062 96.1406C397.062 87.8594 399.536 79.1354 404.484 69.9688C409.484 60.75 415.812 53.3802 423.469 47.8594C429.458 43.4844 435.109 41.2969 440.422 41.2969C443.599 41.2969 446.229 42.1302 448.312 43.7969C450.448 45.4635 452.062 48.224 453.156 52.0781L455.969 43.1719L468.391 41.2969ZM440.578 45.3594C437.245 45.3594 433.703 46.9219 429.953 50.0469C424.641 54.474 419.901 61.0365 415.734 69.7344C411.62 78.4323 409.562 86.2969 409.562 93.3281C409.562 96.8698 410.448 99.6823 412.219 101.766C413.99 103.797 416.021 104.812 418.312 104.812C423.99 104.812 430.161 100.62 436.828 92.2344C445.734 81.0885 450.188 69.6562 450.188 57.9375C450.188 53.5104 449.328 50.3073 447.609 48.3281C445.891 46.349 443.547 45.3594 440.578 45.3594Z" fill="#14151F"/>
</svg>
