<svg width="33" height="47" viewBox="0 0 33 47" fill="none" xmlns="http://www.w3.org/2000/svg">
<path d="M14.9688 17.1719H8.40625L7.09375 18.7969L5.59375 20.5938C5.30208 20.9792 5.08854 21.3281 4.95312 21.6406C4.84896 21.8802 4.79688 22.1198 4.79688 22.3594C4.79688 22.6094 4.92708 22.8438 5.1875 23.0625C5.45833 23.2708 5.90104 23.3906 6.51562 23.4219V24H0.1875L0.34375 23.4219C0.90625 23.3281 1.40625 23.1302 1.84375 22.8281C2.42708 22.4115 3.26562 21.5521 4.35938 20.25L19.375 2.32812H20.0781L19.375 19.6719C19.3438 20.5781 19.3281 21.125 19.3281 21.3125C19.3281 22.0208 19.4688 22.5365 19.75 22.8594C20.0417 23.1823 20.5208 23.3698 21.1875 23.4219L21.0312 24H11.8594L12.0312 23.4219C12.9375 23.3385 13.4583 23.2656 13.5938 23.2031C13.8854 23.0573 14.151 22.7552 14.3906 22.2969C14.6302 21.8281 14.776 21.0208 14.8281 19.875L14.9688 17.1719ZM14.9688 15.8906L15.375 8.98438L9.48438 15.8906H14.9688Z" fill="#F4F3F1"/>
<path d="M13 45.4844L13.6875 27.7656C13.7188 26.7344 13.7344 26.1927 13.7344 26.1406C13.7344 25.5677 13.5938 25.1458 13.3125 24.875C13.0417 24.6042 12.5365 24.4427 11.7969 24.3906L11.9844 23.8125H20.8906L20.7188 24.3906C19.9583 24.3906 19.3802 24.6198 18.9844 25.0781C18.599 25.5365 18.375 26.4844 18.3125 27.9219L17.8125 38.9688L26.0781 29.375C27.151 28.1354 27.8125 27.276 28.0625 26.7969C28.3125 26.3177 28.4375 25.901 28.4375 25.5469C28.4375 25.2865 28.3229 25.0573 28.0938 24.8594C27.8646 24.651 27.4271 24.4948 26.7812 24.3906L27 23.8125H32.8438V24.3906C32.3438 24.5156 31.9375 24.6979 31.625 24.9375C31.1667 25.2812 30.4583 26.0104 29.5 27.125L13.6875 45.4844H13Z" fill="#F4F3F1"/>
</svg>
