<svg width="387" height="119" viewBox="0 0 387 119" fill="none" xmlns="http://www.w3.org/2000/svg">
<path d="M4.1875 118.359L12.9375 30.1562C13.3542 25.6771 14.5625 12.6562 14.5625 11.0938C14.5625 8.75 13.6771 6.79688 11.9062 5.23438C10.1875 3.67188 7.45312 2.89062 3.70312 2.89062H0.890625L1.67188 0H43.4688L42.6094 2.89062C38.0781 2.94271 34.9531 3.41146 33.2344 4.29688C31.5677 5.18229 30.2396 6.69271 29.25 8.82812C28.7292 9.97396 27.1823 23.2292 26.6094 28.5938L20.3594 91.7969L61.6875 35.3906C66.1667 29.2969 68.9792 25.0521 70.125 22.6562C70.9062 21.0417 71.2969 19.6354 71.2969 18.4375C71.2969 17.0312 70.6979 15.8073 69.5 14.7656C68.3021 13.724 66.0625 13.099 62.7812 12.8906L63.7188 10H95.5938L94.8125 12.8906C92.2604 13.099 90.2292 13.5938 88.7188 14.375C85.8542 15.7292 82.9896 17.7865 80.125 20.5469C77.3125 23.3073 72.8333 28.8802 66.6875 37.2656L7 118.359H4.1875Z" fill="#101018"/>
<path d="M134.969 45.2344L119.734 98.2031L118.016 105.312C117.859 105.99 117.781 106.562 117.781 107.031C117.781 107.865 118.042 108.594 118.562 109.219C118.979 109.688 119.5 109.922 120.125 109.922C120.802 109.922 121.688 109.505 122.781 108.672C124.812 107.161 127.521 104.036 130.906 99.2969L133.562 101.172C129.969 106.589 126.271 110.729 122.469 113.594C118.667 116.406 115.151 117.812 111.922 117.812C109.682 117.812 107.99 117.24 106.844 116.094C105.75 115 105.203 113.385 105.203 111.25C105.203 108.698 105.776 105.339 106.922 101.172L108.562 95.3125C101.74 104.219 95.4635 110.443 89.7344 113.984C85.6198 116.536 81.5833 117.812 77.625 117.812C73.8229 117.812 70.5417 116.25 67.7812 113.125C65.0208 109.948 63.6406 105.599 63.6406 100.078C63.6406 91.7969 66.1146 83.0729 71.0625 73.9062C76.0625 64.6875 82.3906 57.3177 90.0469 51.7969C96.0365 47.4219 101.688 45.2344 107 45.2344C110.177 45.2344 112.807 46.0677 114.891 47.7344C117.026 49.401 118.641 52.1615 119.734 56.0156L122.547 47.1094L134.969 45.2344ZM107.156 49.2969C103.823 49.2969 100.281 50.8594 96.5312 53.9844C91.2188 58.4115 86.4792 64.974 82.3125 73.6719C78.1979 82.3698 76.1406 90.2344 76.1406 97.2656C76.1406 100.807 77.026 103.62 78.7969 105.703C80.5677 107.734 82.599 108.75 84.8906 108.75C90.5677 108.75 96.7396 104.557 103.406 96.1719C112.312 85.026 116.766 73.5938 116.766 61.875C116.766 57.4479 115.906 54.2448 114.188 52.2656C112.469 50.2865 110.125 49.2969 107.156 49.2969Z" fill="#101018"/>
<path d="M148.25 49.6094L175.203 45.2344L163.953 83.2031C173.068 67.6302 181.349 56.7448 188.797 50.5469C193.016 47.0052 196.453 45.2344 199.109 45.2344C200.828 45.2344 202.182 45.7552 203.172 46.7969C204.161 47.7865 204.656 49.2448 204.656 51.1719C204.656 54.6094 203.771 57.8906 202 61.0156C200.75 63.3594 198.953 64.5312 196.609 64.5312C195.411 64.5312 194.37 64.1406 193.484 63.3594C192.651 62.5781 192.13 61.3802 191.922 59.7656C191.818 58.776 191.583 58.125 191.219 57.8125C190.802 57.3958 190.307 57.1875 189.734 57.1875C188.849 57.1875 188.016 57.3958 187.234 57.8125C185.88 58.5417 183.823 60.5729 181.062 63.9062C176.74 69.0104 172.052 75.625 167 83.75C164.812 87.1875 162.938 91.0677 161.375 95.3906C159.188 101.328 157.938 104.896 157.625 106.094L155.125 115.938H143.172L157.625 67.4219C159.292 61.7969 160.125 57.7865 160.125 55.3906C160.125 54.4531 159.734 53.6719 158.953 53.0469C157.911 52.2135 156.531 51.7969 154.812 51.7969C153.719 51.7969 151.714 52.0312 148.797 52.5L148.25 49.6094Z" fill="#101018"/>
<path d="M215.359 86.4844C214.995 89.0885 214.812 91.25 214.812 92.9688C214.812 97.6042 216.453 101.562 219.734 104.844C223.016 108.073 227 109.688 231.688 109.688C235.438 109.688 239.031 108.932 242.469 107.422C245.958 105.859 251.115 102.448 257.938 97.1875L259.578 99.4531C247.234 111.693 235.464 117.812 224.266 117.812C216.661 117.812 210.932 115.417 207.078 110.625C203.224 105.833 201.297 100.547 201.297 94.7656C201.297 87.0052 203.693 79.0625 208.484 70.9375C213.276 62.8125 219.292 56.5104 226.531 52.0312C233.771 47.5 241.219 45.2344 248.875 45.2344C254.396 45.2344 258.484 46.3542 261.141 48.5938C263.797 50.8333 265.125 53.4896 265.125 56.5625C265.125 60.8854 263.406 65.026 259.969 68.9844C255.438 74.1406 248.771 78.3073 239.969 81.4844C234.135 83.6198 225.932 85.2865 215.359 86.4844ZM215.906 82.6562C223.615 81.7708 229.891 80.2604 234.734 78.125C241.141 75.2604 245.932 71.849 249.109 67.8906C252.339 63.8802 253.953 60.0781 253.953 56.4844C253.953 54.2969 253.25 52.526 251.844 51.1719C250.49 49.8177 248.536 49.1406 245.984 49.1406C240.672 49.1406 235.021 51.9792 229.031 57.6562C223.094 63.2812 218.719 71.6146 215.906 82.6562Z" fill="#101018"/>
<path d="M313.969 7.84375L288.25 97.8125C286.948 102.448 286.297 105.286 286.297 106.328C286.297 107.109 286.531 107.76 287 108.281C287.521 108.802 288.146 109.062 288.875 109.062C289.865 109.062 290.932 108.62 292.078 107.734C294.786 105.599 297.625 102.292 300.594 97.8125L302.938 100.234C297.99 107.214 293.432 112.083 289.266 114.844C286.193 116.823 283.276 117.812 280.516 117.812C278.536 117.812 276.87 117.135 275.516 115.781C274.214 114.427 273.562 112.865 273.562 111.094C273.562 109.219 274.396 105.365 276.062 99.5312L297.234 26.25C298.953 20.2604 298.812 19.8229 298.812 18.9375C298.812 17.6875 298.318 16.6719 297.328 15.8906C296.339 15.0573 294.802 14.6406 292.719 14.6406C291.521 14.6406 289.698 14.8229 287.25 15.1875V10.4375L293.391 11.9375H300.891L307.891 10.4375L313.969 7.84375Z" fill="#101018"/>
<path d="M387 45.2344L371.766 98.2031L370.047 105.312C369.891 105.99 369.812 106.562 369.812 107.031C369.812 107.865 370.073 108.594 370.594 109.219C371.01 109.688 371.531 109.922 372.156 109.922C372.833 109.922 373.719 109.505 374.812 108.672C376.844 107.161 379.552 104.036 382.938 99.2969L385.594 101.172C382 106.589 378.302 110.729 374.5 113.594C370.698 116.406 367.182 117.812 363.953 117.812C361.714 117.812 360.021 117.24 358.875 116.094C357.781 115 357.234 113.385 357.234 111.25C357.234 108.698 357.807 105.339 358.953 101.172L360.594 95.3125C353.771 104.219 347.495 110.443 341.766 113.984C337.651 116.536 333.615 117.812 329.656 117.812C325.854 117.812 322.573 116.25 319.812 113.125C317.052 109.948 315.672 105.599 315.672 100.078C315.672 91.7969 318.146 83.0729 323.094 73.9062C328.094 64.6875 334.422 57.3177 342.078 51.7969C348.068 47.4219 353.719 45.2344 359.031 45.2344C362.208 45.2344 364.839 46.0677 366.922 47.7344C369.057 49.401 370.672 52.1615 371.766 56.0156L374.578 47.1094L387 45.2344ZM359.188 49.2969C355.854 49.2969 352.312 50.8594 348.562 53.9844C343.25 58.4115 338.51 64.974 334.344 73.6719C330.229 82.3698 328.172 90.2344 328.172 97.2656C328.172 100.807 329.057 103.62 330.828 105.703C332.599 107.734 334.63 108.75 336.922 108.75C342.599 108.75 348.771 104.557 355.438 96.1719C364.344 85.026 368.797 73.5938 368.797 61.875C368.797 57.4479 367.938 54.2448 366.219 52.2656C364.5 50.2865 362.156 49.2969 359.188 49.2969Z" fill="#101018"/>
</svg>
